<?xml version="1.0" encoding="UTF-8"?>
<!-- Generator: visioncortex VTracer -->
<svg id="svg" version="1.1" xmlns="http://www.w3.org/2000/svg" style="display: block;" viewBox="0 0 1024 1024"><path d="M0 0 C337.92 0 675.84 0 1024 0 C1024 337.92 1024 675.84 1024 1024 C686.08 1024 348.16 1024 0 1024 C0 686.08 0 348.16 0 0 Z " transform="translate(0,0)" style="fill: #FDF5E7;"/><path d="M0 0 C1.8033783 -0.02893593 1.8033783 -0.02893593 3.64318848 -0.05845642 C9.15435271 -0.11646485 14.66537165 -0.1657997 20.17675781 -0.19628906 C23.07500068 -0.21402547 25.97225638 -0.24872362 28.87011719 -0.29882812 C32.38916881 -0.35957992 35.9073137 -0.38983904 39.42686462 -0.39946175 C41.39649746 -0.41200532 43.36587442 -0.45392941 45.33508301 -0.49668884 C54.96833746 -0.47491436 62.93457284 1.68069643 70.27844238 8.1877594 C76.20197208 14.33596448 80.20784946 22.70229887 80.14257812 31.31811523 C80.13935547 32.0722168 80.13613281 32.82631836 80.1328125 33.60327148 C80.12443359 34.38057617 80.11605469 35.15788086 80.10742188 35.95874023 C80.10291016 36.75151367 80.09839844 37.54428711 80.09375 38.36108398 C80.08200752 40.31033532 80.06407333 42.25954762 80.04492188 44.20874023 C80.59678665 44.19985779 81.14865143 44.19097534 81.71723938 44.18182373 C87.5093846 44.09269034 93.30133209 44.03273518 99.09399414 43.98901367 C101.24999925 43.96901333 103.40595091 43.94180399 105.56176758 43.90698242 C108.677381 43.85795171 111.79227159 43.8356551 114.90820312 43.81811523 C115.85762283 43.79747009 116.80704254 43.77682495 117.78523254 43.7555542 C128.74588 43.75195525 138.23405161 47.44199918 146.04492188 55.20874023 C151.45149067 61.82480913 155.28513685 67.64371935 155.31234741 76.3613739 C155.32514236 78.21794868 155.32514236 78.21794868 155.3381958 80.11203003 C155.33749683 81.47589124 155.3365738 82.83975235 155.33544922 84.20361328 C155.34143658 85.64623868 155.34824261 87.08886088 155.35580444 88.53147888 C155.37345477 92.44496975 155.37815953 96.35837312 155.37943602 100.27189994 C155.38085921 102.72016858 155.38513208 105.1684151 155.39043045 107.61667824 C155.40893051 116.1674808 155.41710147 124.71822106 155.41552734 133.26904297 C155.41432731 141.22328725 155.43540238 149.17725958 155.46701467 157.1314351 C155.49322791 163.97241283 155.50389247 170.81330206 155.50261652 177.6543296 C155.50210819 181.73474013 155.50771933 185.81490915 155.52897263 189.89526939 C155.54843933 193.73756931 155.54842256 197.57939951 155.53393936 201.42171669 C155.53186025 202.82529009 155.5364982 204.22889353 155.54866028 205.63241577 C155.64555146 217.59696687 153.68827193 226.36354884 145.32226562 235.16577148 C137.12160203 242.52245598 128.36520812 245.51988202 117.48110962 245.47616577 C116.22597095 245.48296244 116.22597095 245.48296244 114.94547594 245.48989642 C112.15516272 245.50250783 109.36504551 245.50092217 106.57470703 245.49926758 C104.56859589 245.5052548 102.56248705 245.5120608 100.55638123 245.5196228 C95.11626994 245.5372688 89.6762216 245.54197756 84.23608446 245.54325438 C80.83535516 245.54467716 77.43464181 245.54894915 74.03391647 245.55424881 C62.16452775 245.57274345 50.29518391 245.58092 38.42578125 245.5793457 C27.37002412 245.578144 16.31446212 245.59925352 5.25875437 245.63083303 C-4.24124581 245.65699976 -13.74118227 245.66771285 -23.24121821 245.66643488 C-28.91164872 245.66592543 -34.58190572 245.67159976 -40.25230026 245.69279099 C-45.58593138 245.71218027 -50.91922355 245.71229294 -56.25286674 245.69775772 C-58.20674193 245.6956695 -60.16063837 245.70037129 -62.11447716 245.71247864 C-64.78914645 245.72797522 -67.46265332 245.71859425 -70.13729858 245.70321655 C-70.90395257 245.71350368 -71.67060656 245.72379081 -72.46049249 245.73438966 C-81.54645381 245.61954959 -89.34229704 241.25471151 -95.95507812 235.20874023 C-105.52432092 225.20985796 -107.55785288 214.60071394 -107.48852539 201.11523438 C-107.49560012 199.73407579 -107.50435161 198.35292494 -107.51463318 196.9717865 C-107.53696321 193.2526133 -107.53422636 189.53386893 -107.52531171 185.81465459 C-107.5201687 182.69611801 -107.52752103 179.57765969 -107.53478378 176.45913118 C-107.55173074 169.09573014 -107.54826974 161.7325366 -107.53149414 154.36914062 C-107.51457628 146.80211256 -107.5304142 139.23566154 -107.56271702 131.66869646 C-107.58950546 125.14345728 -107.59666414 118.61839671 -107.58820194 112.09310812 C-107.58329975 108.20830972 -107.58533987 104.32385819 -107.60598946 100.43910408 C-107.62449332 96.78371755 -107.61821177 93.12915388 -107.59379005 89.4738102 C-107.58648437 87.5128968 -107.60352281 85.55193854 -107.62161255 83.59109497 C-107.49226179 71.37143755 -103.78090721 62.12369707 -95.29101562 53.33764648 C-86.83683539 45.63274978 -78.87064576 43.90215122 -67.65039062 44.01342773 C-66.57127411 44.01625763 -65.49215759 44.01908752 -64.38034058 44.02200317 C-60.94680514 44.03316363 -57.51353422 44.05826093 -54.08007812 44.08374023 C-51.74674857 44.09377536 -49.41341491 44.10290028 -47.08007812 44.11108398 C-41.37165513 44.13308944 -35.66338553 44.16652596 -29.95507812 44.20874023 C-29.96326065 43.63299255 -29.97144318 43.05724487 -29.97987366 42.46405029 C-30.01253901 39.83209951 -30.032739 37.20019154 -30.05273438 34.56811523 C-30.06582642 33.6623877 -30.07891846 32.75666016 -30.09240723 31.82348633 C-30.14846476 21.98426872 -27.74942055 15.20018454 -20.95507812 7.96655273 C-14.65640471 2.43060931 -8.27488144 0.12436936 0 0 Z " transform="translate(261.955078125,368.791259765625)" style="fill: #FDF4E7;"/><path d="M0 0 C1.8033783 -0.02893593 1.8033783 -0.02893593 3.64318848 -0.05845642 C9.15435271 -0.11646485 14.66537165 -0.1657997 20.17675781 -0.19628906 C23.07500068 -0.21402547 25.97225638 -0.24872362 28.87011719 -0.29882812 C32.38916881 -0.35957992 35.9073137 -0.38983904 39.42686462 -0.39946175 C41.39649746 -0.41200532 43.36587442 -0.45392941 45.33508301 -0.49668884 C54.96833746 -0.47491436 62.93457284 1.68069643 70.27844238 8.1877594 C76.20197208 14.33596448 80.20784946 22.70229887 80.14257812 31.31811523 C80.13935547 32.0722168 80.13613281 32.82631836 80.1328125 33.60327148 C80.12443359 34.38057617 80.11605469 35.15788086 80.10742188 35.95874023 C80.10291016 36.75151367 80.09839844 37.54428711 80.09375 38.36108398 C80.08200752 40.31033532 80.06407333 42.25954762 80.04492188 44.20874023 C80.59678665 44.19985779 81.14865143 44.19097534 81.71723938 44.18182373 C87.5093846 44.09269034 93.30133209 44.03273518 99.09399414 43.98901367 C101.24999925 43.96901333 103.40595091 43.94180399 105.56176758 43.90698242 C108.677381 43.85795171 111.79227159 43.8356551 114.90820312 43.81811523 C115.85762283 43.79747009 116.80704254 43.77682495 117.78523254 43.7555542 C128.74588 43.75195525 138.23405161 47.44199918 146.04492188 55.20874023 C151.45149067 61.82480913 155.28513685 67.64371935 155.31234741 76.3613739 C155.32514236 78.21794868 155.32514236 78.21794868 155.3381958 80.11203003 C155.33749683 81.47589124 155.3365738 82.83975235 155.33544922 84.20361328 C155.34143658 85.64623868 155.34824261 87.08886088 155.35580444 88.53147888 C155.37345477 92.44496975 155.37815953 96.35837312 155.37943602 100.27189994 C155.38085921 102.72016858 155.38513208 105.1684151 155.39043045 107.61667824 C155.40893051 116.1674808 155.41710147 124.71822106 155.41552734 133.26904297 C155.41432731 141.22328725 155.43540238 149.17725958 155.46701467 157.1314351 C155.49322791 163.97241283 155.50389247 170.81330206 155.50261652 177.6543296 C155.50210819 181.73474013 155.50771933 185.81490915 155.52897263 189.89526939 C155.54843933 193.73756931 155.54842256 197.57939951 155.53393936 201.42171669 C155.53186025 202.82529009 155.5364982 204.22889353 155.54866028 205.63241577 C155.64555146 217.59696687 153.68827193 226.36354884 145.32226562 235.16577148 C137.12160203 242.52245598 128.36520812 245.51988202 117.48110962 245.47616577 C116.22597095 245.48296244 116.22597095 245.48296244 114.94547594 245.48989642 C112.15516272 245.50250783 109.36504551 245.50092217 106.57470703 245.49926758 C104.56859589 245.5052548 102.56248705 245.5120608 100.55638123 245.5196228 C95.11626994 245.5372688 89.6762216 245.54197756 84.23608446 245.54325438 C80.83535516 245.54467716 77.43464181 245.54894915 74.03391647 245.55424881 C62.16452775 245.57274345 50.29518391 245.58092 38.42578125 245.5793457 C27.37002412 245.578144 16.31446212 245.59925352 5.25875437 245.63083303 C-4.24124581 245.65699976 -13.74118227 245.66771285 -23.24121821 245.66643488 C-28.91164872 245.66592543 -34.58190572 245.67159976 -40.25230026 245.69279099 C-45.58593138 245.71218027 -50.91922355 245.71229294 -56.25286674 245.69775772 C-58.20674193 245.6956695 -60.16063837 245.70037129 -62.11447716 245.71247864 C-64.78914645 245.72797522 -67.46265332 245.71859425 -70.13729858 245.70321655 C-70.90395257 245.71350368 -71.67060656 245.72379081 -72.46049249 245.73438966 C-81.54645381 245.61954959 -89.34229704 241.25471151 -95.95507812 235.20874023 C-105.52432092 225.20985796 -107.55785288 214.60071394 -107.48852539 201.11523438 C-107.49560012 199.73407579 -107.50435161 198.35292494 -107.51463318 196.9717865 C-107.53696321 193.2526133 -107.53422636 189.53386893 -107.52531171 185.81465459 C-107.5201687 182.69611801 -107.52752103 179.57765969 -107.53478378 176.45913118 C-107.55173074 169.09573014 -107.54826974 161.7325366 -107.53149414 154.36914062 C-107.51457628 146.80211256 -107.5304142 139.23566154 -107.56271702 131.66869646 C-107.58950546 125.14345728 -107.59666414 118.61839671 -107.58820194 112.09310812 C-107.58329975 108.20830972 -107.58533987 104.32385819 -107.60598946 100.43910408 C-107.62449332 96.78371755 -107.61821177 93.12915388 -107.59379005 89.4738102 C-107.58648437 87.5128968 -107.60352281 85.55193854 -107.62161255 83.59109497 C-107.49226179 71.37143755 -103.78090721 62.12369707 -95.29101562 53.33764648 C-86.83683539 45.63274978 -78.87064576 43.90215122 -67.65039062 44.01342773 C-66.57127411 44.01625763 -65.49215759 44.01908752 -64.38034058 44.02200317 C-60.94680514 44.03316363 -57.51353422 44.05826093 -54.08007812 44.08374023 C-51.74674857 44.09377536 -49.41341491 44.10290028 -47.08007812 44.11108398 C-41.37165513 44.13308944 -35.66338553 44.16652596 -29.95507812 44.20874023 C-29.96326065 43.63299255 -29.97144318 43.05724487 -29.97987366 42.46405029 C-30.01253901 39.83209951 -30.032739 37.20019154 -30.05273438 34.56811523 C-30.06582642 33.6623877 -30.07891846 32.75666016 -30.09240723 31.82348633 C-30.14846476 21.98426872 -27.74942055 15.20018454 -20.95507812 7.96655273 C-14.65640471 2.43060931 -8.27488144 0.12436936 0 0 Z M-83.20507812 69.58374023 C-83.924375 70.4306543 -83.924375 70.4306543 -84.65820312 71.29467773 C-87.39928525 75.34025075 -88.20569754 78.96269321 -88.22250366 83.80537415 C-88.23103363 84.91976868 -88.2395636 86.03416321 -88.24835205 87.18232727 C-88.24744568 88.39543076 -88.24653931 89.60853424 -88.24560547 90.85839844 C-88.25232269 92.14350311 -88.25903992 93.42860779 -88.26596069 94.75265503 C-88.28359865 98.27139805 -88.28831517 101.79004373 -88.28959227 105.30882668 C-88.29101583 107.50983642 -88.29528934 109.71082156 -88.3005867 111.91182518 C-88.31908063 119.59797099 -88.32725823 127.28404752 -88.32568359 134.97021484 C-88.32448279 142.12244294 -88.34557448 149.27436896 -88.37717092 156.42652065 C-88.40336909 162.57702843 -88.41404939 168.72743779 -88.41277277 174.87800092 C-88.41226412 178.54699816 -88.41789327 182.21572693 -88.43912888 185.88466835 C-88.46218753 189.98028653 -88.45296884 194.07523304 -88.44091797 198.17089844 C-88.45215698 199.37792923 -88.463396 200.58496002 -88.47497559 201.8285675 C-88.4253608 208.46944428 -88.11355098 213.83522743 -83.95507812 219.20874023 C-83.27645847 220.09510603 -83.27645847 220.09510603 -82.58412933 220.9993782 C-77.00558714 226.52161663 -69.67874185 225.98102617 -62.33410645 225.98858643 C-60.48363732 225.9721388 -58.63317346 225.95508995 -56.78271484 225.9375 C-54.82084585 225.94072118 -52.85897967 225.94654128 -50.89712524 225.95475769 C-45.58303249 225.96926758 -40.26969855 225.94638277 -34.95569754 225.91589856 C-29.39048758 225.88950127 -23.82530009 225.89483045 -18.26004028 225.89598083 C-8.91720926 225.89317363 0.42532895 225.86715696 9.76806641 225.82617188 C20.56771268 225.77897047 31.36703861 225.76317868 42.16678059 225.76537853 C53.67023664 225.76740522 65.17356931 225.74658273 76.67698812 225.71903872 C79.98995654 225.71264702 83.30290504 225.71051551 86.61587906 225.70932198 C91.8214832 225.70630713 97.02681869 225.68798053 102.23233414 225.65782356 C104.1422969 225.64906616 106.05229059 225.64536891 107.96227264 225.64710617 C110.56995149 225.64858042 113.17688014 225.63159256 115.78445435 225.60987854 C116.53971 225.61452435 117.29496565 225.61917015 118.07310784 225.62395674 C122.80252359 225.55894356 126.03032052 224.71010927 130.04492188 222.20874023 C134.9766578 217.05283449 137.29019235 212.83142468 137.30561829 205.69476318 C137.31270309 204.59864212 137.3197879 203.50252106 137.3270874 202.3731842 C137.32460999 201.18035324 137.32213257 199.98752228 137.31958008 198.75854492 C137.32469101 197.49455368 137.32980194 196.23056244 137.33506775 194.92826843 C137.34843915 191.46729728 137.34903823 188.00643547 137.34650445 184.54544353 C137.34543291 181.65062468 137.35032306 178.75582779 137.35510987 175.86101365 C137.36619983 169.02622215 137.36664614 162.1914856 137.3605957 155.35668945 C137.35456325 148.3215449 137.36684945 141.28660072 137.38816577 134.25149035 C137.40582454 128.19948138 137.41177619 122.14753591 137.40852803 116.09550214 C137.40672094 112.48632946 137.40929312 108.87729954 137.42324257 105.26815033 C137.43823821 101.23747421 137.42881358 97.2072011 137.41723633 93.17651367 C137.42488007 91.99177963 137.4325238 90.80704559 137.44039917 89.58641052 C137.39536504 82.47654592 137.27007864 74.99677956 132.44676685 69.33166122 C126.48259516 63.47602961 118.8235797 62.90611497 110.79623413 62.94804382 C110.00550652 62.94421828 109.21477891 62.94039273 108.40008986 62.93645126 C105.77170295 62.92619837 103.14353764 62.93009856 100.51513672 62.93408203 C98.62223612 62.92973142 96.72933728 62.9245471 94.83644104 62.91859436 C89.71062239 62.90523422 84.5848776 62.90462211 79.45904493 62.90715766 C75.17698247 62.90822888 70.89493486 62.9033404 66.61287558 62.89855224 C56.51273903 62.88746849 46.41263968 62.88701401 36.3125 62.89306641 C25.89459702 62.89911312 15.47682886 62.88677486 5.05894887 62.86549634 C-3.89155934 62.84788752 -12.84202459 62.84187764 -21.79254949 62.84513408 C-27.13587258 62.84694741 -32.47909938 62.84430527 -37.82240677 62.83041954 C-42.84410934 62.81785671 -47.8656012 62.81977068 -52.88730049 62.83283043 C-54.72955331 62.8351987 -56.57182089 62.83245255 -58.41405678 62.82420731 C-60.92973551 62.81375987 -63.44470448 62.82182401 -65.96035767 62.83451843 C-66.68837668 62.82714415 -67.4163957 62.81976986 -68.16647589 62.81217211 C-74.44426453 62.87877099 -79.18701338 64.70466161 -83.20507812 69.58374023 Z " transform="translate(261.955078125,368.791259765625)" style="fill: #FA745D;"/><path d="M0 0 C8.64482416 6.22061421 14.25184158 14.33070917 16.9296875 24.703125 C18.8451559 37.75958306 17.32128476 50.8141318 10.04296875 61.9921875 C4.06606427 70.00636642 -2.63092559 75.72773791 -12.6875 77.3125 C-21.04962879 77.8757522 -29.69524445 78.17295917 -36.62158203 72.81689453 C-37.22341309 72.28177246 -37.82524414 71.74665039 -38.4453125 71.1953125 C-39.05777832 70.65535645 -39.67024414 70.11540039 -40.30126953 69.55908203 C-40.75872559 69.14770996 -41.21618164 68.73633789 -41.6875 68.3125 C-41.70731934 69.39257324 -41.72713867 70.47264648 -41.74755859 71.58544922 C-41.82351623 75.58503913 -41.91224816 79.58426052 -42.00488281 83.58349609 C-42.04321341 85.31584407 -42.07805906 87.04827274 -42.109375 88.78076172 C-42.15493765 91.26819749 -42.21294503 93.75507566 -42.2734375 96.2421875 C-42.29076431 97.40788773 -42.29076431 97.40788773 -42.30844116 98.59713745 C-42.45975659 104.08475659 -42.45975659 104.08475659 -44.6875 106.3125 C-46.53515625 106.57128906 -46.53515625 106.57128906 -48.75 106.578125 C-49.94496094 106.58199219 -49.94496094 106.58199219 -51.1640625 106.5859375 C-51.99679687 106.57820312 -52.82953125 106.57046875 -53.6875 106.5625 C-54.93660156 106.57410156 -54.93660156 106.57410156 -56.2109375 106.5859375 C-57.00757813 106.58335937 -57.80421875 106.58078125 -58.625 106.578125 C-59.35589844 106.57586914 -60.08679688 106.57361328 -60.83984375 106.57128906 C-62.6875 106.3125 -62.6875 106.3125 -64.6875 104.3125 C-64.94197559 102.43496037 -64.94197559 102.43496037 -64.94819641 100.10597229 C-64.95528122 99.22407227 -64.96236603 98.34217224 -64.96966553 97.43354797 C-64.96718811 96.46362411 -64.96471069 95.49370026 -64.9621582 94.49438477 C-64.96726913 93.47478668 -64.97238007 92.4551886 -64.97764587 91.4046936 C-64.99159084 88.02103876 -64.99058141 84.63758648 -64.98828125 81.25390625 C-64.99216549 78.90982486 -64.99649959 76.56574419 -65.00126648 74.22166443 C-65.00873926 69.30294516 -65.00842975 64.38429765 -65.00317383 59.46557617 C-64.99737794 53.15232679 -65.0143082 46.83937065 -65.0375185 40.52616978 C-65.05222755 35.68355075 -65.05313139 30.84100281 -65.05000877 25.9983654 C-65.05052341 23.67028154 -65.05578774 21.34219385 -65.06582069 19.01413155 C-65.07811284 15.76256201 -65.07143667 12.51156958 -65.05981445 9.26000977 C-65.06745819 8.29211014 -65.07510193 7.32421051 -65.08297729 6.32698059 C-65.07596298 5.44226074 -65.06894867 4.55754089 -65.0617218 3.64601135 C-65.06188954 2.87706826 -65.06205729 2.10812517 -65.06223011 1.31588078 C-64.57891384 -1.26802296 -63.79641887 -2.14763554 -61.6875 -3.6875 C-58.89303898 -3.93150699 -56.34650564 -4.01578487 -53.5625 -3.9375 C-52.82128906 -3.93234375 -52.08007812 -3.9271875 -51.31640625 -3.921875 C-45.84180775 -3.84180775 -45.84180775 -3.84180775 -44.6875 -2.6875 C-44.61570036 -1.16821962 -44.60357993 0.35417482 -44.625 1.875 C-44.63402344 2.70128906 -44.64304687 3.52757812 -44.65234375 4.37890625 C-44.66394531 5.01699219 -44.67554688 5.65507812 -44.6875 6.3125 C-44.06875 5.61125 -43.45 4.91 -42.8125 4.1875 C-30.78990159 -7.86954711 -14.24261789 -8.84440062 0 0 Z " transform="translate(850.6875,488.6875)" style="fill: #FA765E;"/><path d="M0 0 C7.09826122 6.47239302 11.54586372 15.94457864 12.22265625 25.4921875 C12.60428837 39.89880002 9.80865931 51.54546269 0.15625 62.50390625 C-8.3061376 70.68826879 -19.7375386 72.69813687 -31.12158203 72.72314453 C-41.87647108 72.51205996 -51.19094789 67.84354503 -58.96875 60.55859375 C-68.87223789 49.98225743 -69.46116464 38.67172036 -69.26953125 24.859375 C-68.92111441 14.6966423 -65.30346281 6.54659348 -57.99609375 -0.59375 C-40.12663349 -13.9156804 -17.46846366 -13.94742304 0 0 Z " transform="translate(626.99609375,493.59375)" style="fill: #FA755D;"/><path d="M0 0 C0.9384375 0.50917969 1.876875 1.01835937 2.84375 1.54296875 C11.89129131 6.8571832 17.23390355 13.04924801 22 22.25 C22.31549805 22.85271729 22.63099609 23.45543457 22.95605469 24.07641602 C24.65224755 27.54568164 25.16424914 29.34687134 24 33 C6.38140085 34.81648138 6.38140085 34.81648138 1.01953125 30.7265625 C-0.40882767 28.78565949 -1.7811494 26.80223822 -3.09375 24.78125 C-6.18967709 20.26424163 -9.76607512 18.36909207 -15 17 C-23.55040878 15.81808604 -30.72587114 16.0934707 -37.9140625 21.15625 C-44.70872448 27.16201864 -49.55217559 35.04911997 -50.14233398 44.20922852 C-50.62300173 56.83990484 -50.92327633 67.15447577 -42.6875 77.375 C-37.63781338 82.7389375 -32.21296958 85.68350844 -24.828125 86.23828125 C-14.72894696 86.48402481 -14.72894696 86.48402481 -6 82 C-4.37796395 80.36635033 -2.92143064 78.7043402 -1.51953125 76.87890625 C-1.01808594 76.25886719 -0.51664063 75.63882813 0 75 C0.680625 74.10796875 1.36125 73.2159375 2.0625 72.296875 C6.26318755 69.01229484 9.64466752 69.43700849 14.8125 69.6875 C15.69615234 69.71005859 16.57980469 69.73261719 17.49023438 69.75585938 C19.6608891 69.81452572 21.8306669 69.90420021 24 70 C25.53900206 74.74154969 24.3576655 77.31287745 22.1875 81.6875 C16.35581999 93.00318789 7.96088002 100.47260807 -4 105 C-10.22283803 106.90214902 -15.8870833 107.33600694 -22.375 107.3125 C-23.25671875 107.32861328 -24.1384375 107.34472656 -25.046875 107.36132812 C-38.59432703 107.37126027 -49.80620229 101.90125025 -59.57421875 92.6953125 C-71.22473928 79.75028969 -74.97007167 63.29764289 -74.31640625 46.26171875 C-73.31432068 30.15292376 -66.91785698 16.89380409 -55 6 C-51.81669183 3.58870673 -48.59136131 1.73433753 -45 0 C-44.25234375 -0.41121094 -43.5046875 -0.82242187 -42.734375 -1.24609375 C-30.79454393 -6.81159565 -11.47316167 -6.48233634 0 0 Z " transform="translate(527,459)" style="fill: #FA755D;"/><path d="M0 0 C10.29654796 7.57203183 17.29782594 18.94015608 19.2734375 31.671875 C19.44556896 34.39250842 19.41732355 36.93804002 19.2734375 39.671875 C17.40656173 41.53875077 14.73062302 40.79193998 12.24711609 40.79629517 C11.38109268 40.79269989 10.51506927 40.78910461 9.62280273 40.78540039 C8.2619606 40.78561943 8.2619606 40.78561943 6.87362671 40.7858429 C3.85973765 40.78514341 0.84590957 40.77734934 -2.16796875 40.76953125 C-4.25162217 40.7676672 -6.33527604 40.76624324 -8.41893005 40.76524353 C-13.91479696 40.76141734 -19.41063763 40.7515862 -24.90649414 40.74053955 C-30.50992477 40.7303276 -36.11335963 40.72574637 -41.71679688 40.72070312 C-52.72006364 40.70996402 -63.72331089 40.69288639 -74.7265625 40.671875 C-74.74455502 38.90905446 -74.75740075 37.14618088 -74.76806641 35.38330078 C-74.77577057 34.40160919 -74.78347473 33.4199176 -74.79141235 32.40847778 C-74.55058976 22.24599117 -68.88383149 13.37615306 -62.3515625 5.984375 C-44.10785138 -10.08746575 -20.97223829 -13.71000691 0 0 Z " transform="translate(314.7265625,528.328125)" style="fill: #FA755E;"/><path d="M0 0 C1.10589478 0.00616333 1.10589478 0.00616333 2.23413086 0.01245117 C3.0352832 0.01438477 3.83643555 0.01631836 4.66186523 0.01831055 C5.49911133 0.03055664 6.33635742 0.04280273 7.19897461 0.05541992 C8.46064453 0.05638672 8.46064453 0.05638672 9.74780273 0.05737305 C15.99624277 0.10268808 15.99624277 0.10268808 17.13647461 1.24291992 C17.22299072 2.65862115 17.24352365 4.07851493 17.23413086 5.49682617 C17.2309082 6.35083008 17.22768555 7.20483398 17.22436523 8.0847168 C17.21179688 9.43146484 17.21179688 9.43146484 17.19897461 10.80541992 C17.19446289 11.70711914 17.18995117 12.60881836 17.18530273 13.5378418 C17.17347685 15.77293306 17.15699681 18.00789429 17.13647461 20.24291992 C18.95985352 20.22551758 18.95985352 20.22551758 20.82006836 20.20776367 C22.40470225 20.19838714 23.98933779 20.18928679 25.57397461 20.18041992 C26.37641602 20.17204102 27.17885742 20.16366211 28.00561523 20.1550293 C30.04942682 20.14640562 32.09331363 20.19063842 34.13647461 20.24291992 C36.00088036 22.10732567 35.31021888 25.12538162 35.32397461 27.61791992 C35.3381543 28.7806543 35.35233398 29.94338867 35.36694336 31.14135742 C35.13647461 34.24291992 35.13647461 34.24291992 33.13647461 37.24291992 C30.3479457 37.46399779 27.7899428 37.52399528 25.01147461 37.43041992 C23.88032227 37.41011719 23.88032227 37.41011719 22.72631836 37.3894043 C20.86273334 37.35401977 18.99951483 37.30021159 17.13647461 37.24291992 C17.20544581 42.56360999 17.29345822 47.88352126 17.39892578 53.20361328 C17.43212575 55.01244451 17.46017302 56.8213781 17.48291016 58.63037109 C17.51654719 61.23473625 17.56886656 63.83816752 17.62475586 66.44213867 C17.63114578 67.24753586 17.63753571 68.05293304 17.64411926 68.88273621 C17.76338509 73.46444334 18.18495866 76.51428453 21.13647461 80.24291992 C24.43018382 81.88977453 28.06649493 81.69686158 31.70288086 81.96166992 C34.13647461 82.24291992 34.13647461 82.24291992 35.13647461 83.24291992 C35.20906407 85.42931445 35.22021244 87.61792381 35.19897461 89.80541992 C35.18995117 91.00295898 35.18092773 92.20049805 35.17163086 93.43432617 C35.1600293 94.36116211 35.14842773 95.28799805 35.13647461 96.24291992 C28.1933522 100.29666841 20.92972616 100.23936261 13.13647461 99.24291992 C5.9608853 97.34349922 2.01702786 93.67373925 -1.80493164 87.42651367 C-3.53589252 83.85600765 -3.98839159 80.69635877 -3.97705078 76.74975586 C-3.97697525 75.8691449 -3.97689972 74.98853394 -3.9768219 74.08123779 C-3.97166061 73.13943665 -3.96649933 72.1976355 -3.96118164 71.22729492 C-3.95976669 70.25632874 -3.95835175 69.28536255 -3.95689392 68.28497314 C-3.95130202 65.18759057 -3.93875098 62.09028061 -3.92602539 58.99291992 C-3.92100934 56.89135847 -3.91644662 54.78979588 -3.91235352 52.68823242 C-3.90133524 47.539767 -3.88407614 42.39135577 -3.86352539 37.24291992 C-4.56219727 37.26612305 -5.26086914 37.28932617 -5.98071289 37.31323242 C-6.89079102 37.3312793 -7.80086914 37.34932617 -8.73852539 37.36791992 C-9.64344727 37.39112305 -10.54836914 37.41432617 -11.48071289 37.43823242 C-13.86352539 37.24291992 -13.86352539 37.24291992 -15.86352539 35.24291992 C-16.12915039 32.05541992 -16.12915039 32.05541992 -16.11352539 28.24291992 C-16.11868164 26.98479492 -16.12383789 25.72666992 -16.12915039 24.43041992 C-15.86352539 21.24291992 -15.86352539 21.24291992 -13.86352539 19.24291992 C-11.48071289 19.04760742 -11.48071289 19.04760742 -8.73852539 19.11791992 C-7.3734082 19.14499023 -7.3734082 19.14499023 -5.98071289 19.17260742 C-5.28204102 19.19581055 -4.58336914 19.21901367 -3.86352539 19.24291992 C-3.88672852 18.03893555 -3.90993164 16.83495117 -3.93383789 15.59448242 C-3.95259402 14.01896777 -3.97079438 12.44344644 -3.98852539 10.86791992 C-4.0052832 10.07385742 -4.02204102 9.27979492 -4.03930664 8.46166992 C-4.05688012 6.38799977 -3.96687707 4.31408751 -3.86352539 2.24291992 C-1.86352539 0.24291992 -1.86352539 0.24291992 0 0 Z " transform="translate(655.863525390625,465.757080078125)" style="fill: #FA745C;"/><path d="M0 0 C0.73734375 0.00773437 1.4746875 0.01546875 2.234375 0.0234375 C3.34039063 0.01183594 3.34039063 0.01183594 4.46875 0 C9.9810554 0.0201179 9.9810554 0.0201179 12.234375 2.2734375 C12.63484944 4.59618927 12.9740854 6.93083107 13.234375 9.2734375 C13.65847656 8.87511719 14.08257813 8.47679687 14.51953125 8.06640625 C20.69041701 2.49226548 26.0219363 -0.10037481 34.4140625 0.0703125 C36.234375 0.2734375 36.234375 0.2734375 37.234375 1.2734375 C37.32069374 2.61611163 37.34143973 3.96318072 37.33203125 5.30859375 C37.32880859 6.11748047 37.32558594 6.92636719 37.32226562 7.75976562 C37.30969727 9.0349707 37.30969727 9.0349707 37.296875 10.3359375 C37.29236328 11.18994141 37.28785156 12.04394531 37.28320312 12.92382812 C37.27137873 15.04039413 37.25344269 17.15692435 37.234375 19.2734375 C36.37714844 19.35980469 35.51992188 19.44617188 34.63671875 19.53515625 C24.89009656 20.67457409 24.89009656 20.67457409 17.234375 26.2734375 C13.46222486 32.53546587 12.64475021 38.33080665 12.66015625 45.5234375 C12.63890938 46.9324231 12.63890938 46.9324231 12.61723328 48.36987305 C12.57565258 51.33784787 12.56014107 54.30521354 12.546875 57.2734375 C12.51782697 60.26994561 12.48337902 63.26630067 12.44438171 66.26269531 C12.42186551 68.12004635 12.40606369 69.977493 12.39753723 71.83496094 C12.34401275 78.16379975 12.34401275 78.16379975 11.234375 79.2734375 C9.90393875 79.3718096 8.56844156 79.40422342 7.234375 79.40625 C6.43 79.40753906 5.625625 79.40882813 4.796875 79.41015625 C3.95125 79.40628906 3.105625 79.40242187 2.234375 79.3984375 C1.38875 79.40230469 0.543125 79.40617188 -0.328125 79.41015625 C-1.1325 79.40886719 -1.936875 79.40757812 -2.765625 79.40625 C-3.508125 79.40512207 -4.250625 79.40399414 -5.015625 79.40283203 C-6.765625 79.2734375 -6.765625 79.2734375 -7.765625 78.2734375 C-7.87119117 75.91121532 -7.91240998 73.57808366 -7.91088867 71.21508789 C-7.91424728 70.47688309 -7.9176059 69.73867828 -7.92106628 68.97810364 C-7.93060382 66.52575012 -7.93252079 64.07346468 -7.93359375 61.62109375 C-7.93680439 59.92337515 -7.94016831 58.22565684 -7.94367981 56.52793884 C-7.9496781 52.96433877 -7.95151899 49.40076297 -7.95092773 45.8371582 C-7.95082607 41.26250706 -7.9644792 36.688011 -7.98169994 32.11339664 C-7.99279844 28.6056191 -7.99484761 25.09787929 -7.99431801 21.59008598 C-7.99550134 19.90312605 -7.99994278 18.21616523 -8.00765038 16.52922249 C-8.01740709 14.17309725 -8.01458953 11.81731192 -8.00854492 9.46118164 C-8.01416443 8.75928711 -8.01978394 8.05739258 -8.02557373 7.33422852 C-7.9832927 0.87507757 -6.33787532 0.02313093 0 0 Z " transform="translate(708.765625,484.7265625)" style="fill: #FA745C;"/><path d="M0 0 C6.03766966 2.68077278 10.77712795 7.8591546 13.72265625 13.7109375 C15.72922529 20.18496215 15.82691395 28.55558827 13.05078125 34.8203125 C9.86390467 40.07526856 5.17261312 44.0427651 -0.26171875 46.8203125 C-8.34315182 48.24644775 -14.88041282 48.09147252 -22.15234375 44.00390625 C-27.64800534 40.1251655 -32.25503988 35.14982611 -33.44921875 28.3828125 C-34.36686039 20.34070313 -33.28420078 14.00337542 -28.44921875 7.3828125 C-25.97339661 5.01484796 -23.39851451 3.11838217 -20.44921875 1.3828125 C-19.54623047 0.82207031 -19.54623047 0.82207031 -18.625 0.25 C-13.07705418 -1.96121 -5.71351176 -1.43976851 0 0 Z " transform="translate(295.44921875,462.6171875)" style="fill: #FA755E;"/><path d="M0 0 C1.27423828 -0.00193359 1.27423828 -0.00193359 2.57421875 -0.00390625 C3.91419922 0.00189453 3.91419922 0.00189453 5.28125 0.0078125 C6.17457031 0.00394531 7.06789063 0.00007813 7.98828125 -0.00390625 C8.83777344 -0.00261719 9.68726563 -0.00132812 10.5625 0 C11.34689453 0.00112793 12.13128906 0.00225586 12.93945312 0.00341797 C14.78125 0.1328125 14.78125 0.1328125 15.78125 1.1328125 C15.88679346 3.46456053 15.92803558 5.76683736 15.92651367 8.09936523 C15.92987228 8.82781647 15.9332309 9.5562677 15.93669128 10.30679321 C15.9462286 12.72668134 15.94814578 15.14650048 15.94921875 17.56640625 C15.95242941 19.2417046 15.95579333 20.91700267 15.95930481 22.59230042 C15.96530305 26.10882213 15.967144 29.62531923 15.96655273 33.1418457 C15.96645107 37.65596354 15.98010411 42.16992422 15.99732494 46.68400478 C16.0084237 50.14545929 16.0104726 53.60687554 16.00994301 57.06834602 C16.01112631 58.73297734 16.01556755 60.39760954 16.02327538 62.06222343 C16.0330326 64.38721714 16.03021434 66.71186641 16.02416992 69.03686523 C16.02978943 69.72940903 16.03540894 70.42195282 16.04119873 71.13548279 C16.00956581 75.90449669 16.00956581 75.90449669 13.78125 78.1328125 C11.91772461 78.37573242 11.91772461 78.37573242 9.68359375 78.36328125 C8.88244141 78.36134766 8.08128906 78.35941406 7.25585938 78.35742188 C6.41861328 78.34517578 5.58136719 78.33292969 4.71875 78.3203125 C3.87763672 78.31966797 3.03652344 78.31902344 2.16992188 78.31835938 C-4.07851816 78.27304434 -4.07851816 78.27304434 -5.21875 77.1328125 C-5.31900695 74.76519675 -5.35493935 72.42674177 -5.34814453 70.05859375 C-5.34989685 69.31878265 -5.35164917 68.57897156 -5.35345459 67.81674194 C-5.3578731 65.35957527 -5.35493513 62.90247997 -5.3515625 60.4453125 C-5.35223554 58.74519843 -5.35320557 57.04508445 -5.35446167 55.3449707 C-5.35593864 51.77717169 -5.35378411 48.20939767 -5.34912109 44.64160156 C-5.3434238 40.05792756 -5.34670281 35.47431211 -5.35269356 30.89064026 C-5.35629919 27.37861689 -5.35516057 23.86660752 -5.35256577 20.35458374 C-5.3518965 18.66401157 -5.35272489 16.97343814 -5.35504532 15.28286743 C-5.35757189 12.92422093 -5.35373121 10.56567055 -5.34814453 8.20703125 C-5.35016876 7.50154144 -5.35219299 6.79605164 -5.35427856 6.06918335 C-5.3309668 0.78315812 -5.2870138 0.00760253 0 0 Z " transform="translate(758.21875,485.8671875)" style="fill: #FA745D;"/><path d="M0 0 C1.06468002 -0.00938095 2.12936005 -0.0187619 3.2263031 -0.02842712 C4.37115677 -0.01719315 5.51601044 -0.00595917 6.69555664 0.00561523 C7.87662491 0.00416 9.05769318 0.00270477 10.27455139 0.00120544 C12.77192654 0.00286523 15.26931183 0.01443519 17.76660156 0.03515625 C21.58776372 0.06407315 25.40753562 0.05577305 29.22875977 0.04272461 C31.6551988 0.04896312 34.08163345 0.05735493 36.50805664 0.06811523 C37.65088608 0.0651796 38.79371552 0.06224396 39.97117615 0.05921936 C41.03900833 0.07190353 42.10684052 0.08458771 43.20703125 0.09765625 C44.14316757 0.10305923 45.07930389 0.10846222 46.04380798 0.11402893 C49.27907238 0.59194584 51.06886807 1.52160597 53.66821289 3.50170898 C56.66821289 8.50170898 56.66821289 8.50170898 56.66821289 23.50170898 C33.89821289 23.50170898 11.12821289 23.50170898 -12.33178711 23.50170898 C-12.33178711 8.08417821 -12.33178711 8.08417821 -7.5556488 2.38072205 C-4.82149905 0.07055001 -3.53782445 0.00062851 0 0 Z " transform="translate(264.331787109375,389.498291015625)" style="fill: #FDF4E8;"/><path d="M0 0 C3.4246717 1.98672638 5.73100005 4.86695419 7.92578125 8.1171875 C8.3021875 8.67019531 8.67859375 9.22320313 9.06640625 9.79296875 C10.41377127 13.4369787 10.29448382 17.01315892 10.30078125 20.8671875 C10.32527344 21.640625 10.34976563 22.4140625 10.375 23.2109375 C10.41137179 30.43679986 8.12000996 35.4610159 3.55078125 40.9921875 C-1.65358974 45.20524973 -6.87974743 45.58089236 -13.390625 45.421875 C-17.39474121 44.96725919 -20.13041235 43.88467217 -23.07421875 41.1171875 C-27.74030196 35.0780121 -29.26871045 29.97182423 -29.32421875 22.3671875 C-29.34484375 21.67625 -29.36546875 20.9853125 -29.38671875 20.2734375 C-29.43358659 14.04001509 -27.68622083 9.78319095 -24.44921875 4.4296875 C-17.56139088 -2.27688174 -8.80824282 -3.59171067 0 0 Z " transform="translate(836.07421875,502.8828125)" style="fill: #FDF4E8;"/><path d="M0 0 C6.19800215 5.33316464 9.18635294 9.86156202 9.94140625 18.07421875 C10.24369023 25.68982476 9.39963409 32.99015208 4.26171875 38.97265625 C-1.07591093 43.70342364 -5.95948648 44.73941369 -12.88671875 44.5546875 C-18.98475001 43.94586634 -22.2403211 40.67167838 -26.015625 36.2265625 C-30.7363991 29.25915495 -30.12548714 20.40781948 -29.3125 12.3125 C-27.78947949 6.29829971 -24.35194284 2.73932113 -19.3125 -0.6875 C-13.02385988 -3.83182006 -6.14530497 -3.13062706 0 0 Z " transform="translate(608.3125,503.6875)" style="fill: #FDF5E8;"/><path d="M0 0 C0 4.74878629 -0.93690169 5.62311925 -3.8125 9.25 C-10.21011827 17.8404415 -11.35069646 24.30849781 -11.7890625 34.90234375 C-12 38 -12 38 -13 39 C-15.59359322 39.08851529 -18.16039691 39.11525945 -20.75390625 39.09765625 C-21.52935287 39.0962413 -22.3047995 39.09482635 -23.10374451 39.09336853 C-25.59003494 39.08775345 -28.0762366 39.07519846 -30.5625 39.0625 C-32.24413933 39.05748694 -33.92578006 39.0529237 -35.60742188 39.04882812 C-39.73831566 39.03777913 -43.86914276 39.02050445 -48 39 C-50.54631793 31.3610462 -49.46060279 23.02602491 -46.4609375 15.67578125 C-42.11030362 7.70737428 -35.61999052 1.1008088 -26.8828125 -1.671875 C-17.27814049 -4.13120278 -9.371443 -2.94280827 0 0 Z " transform="translate(242,530)" style="fill: #FA755E;"/><path d="M0 0 C7.20504441 5.40678042 11.18591893 12.55775679 14 21 C14.09511161 23.35261357 14.12986976 25.70796967 14.125 28.0625 C14.12886719 29.93615234 14.12886719 29.93615234 14.1328125 31.84765625 C14 35 14 35 13 37 C1.45 37 -10.1 37 -22 37 C-22.33 32.71 -22.66 28.42 -23 24 C-24.59240077 16.31900806 -27.38189223 11.57146873 -32.2578125 5.4453125 C-33.87548406 3.17476901 -34.58287291 1.71764621 -35 -1 C-24.20580795 -7.89628936 -10.76125616 -6.41926892 0 0 Z " transform="translate(366,532)" style="fill: #FA755D;"/><path d="M0 0 C5.71516852 3.31392851 9.62967498 7.7913687 11.7421875 14.12890625 C12.52391628 20.62622578 11.60465498 25.78432916 7.7421875 31.12890625 C4.03250336 35.0072124 0.79041829 37.88007108 -4.74609375 38.33203125 C-11.26254856 38.44018818 -15.93673854 38.29793104 -20.87890625 33.58203125 C-25.67456337 28.38386094 -27.81091297 23.4386088 -27.5625 16.20703125 C-26.69070984 10.26097527 -23.89282504 6.31619033 -19.1953125 2.69140625 C-13.48257796 -1.3327273 -6.65786951 -2.5686936 0 0 Z " transform="translate(353.2578125,481.87109375)" style="fill: #FA755D;"/><path d="M0 0 C4.78487956 3.31970231 7.54302421 7.55848567 8.82421875 13.265625 C9.33547027 18.78714143 8.66346943 23.49306876 5.82421875 28.265625 C1.93484648 32.47100877 -1.70338785 35.92343437 -7.59375 36.50390625 C-13.92554393 36.67358761 -19.18091494 36.47698287 -24.17578125 32.265625 C-28.99472623 26.70371634 -31.13686555 21.2459607 -30.69921875 13.87890625 C-29.59541172 8.36810846 -26.68846561 4.73952258 -22.73828125 0.890625 C-15.27546901 -3.84189008 -7.64929578 -4.26797643 0 0 Z " transform="translate(238.17578125,483.734375)" style="fill: #FA755D;"/><path d="M0 0 C3.2737975 1.62721296 5.26136776 3.95920003 7.375 6.9375 C8.50526567 10.6673767 8.70759405 13.48896251 7.01953125 17.09375 C4.79384312 20.87399568 3.22704664 23.41289327 -1 25 C-5.62516534 25.72320767 -9.14401775 25.4121396 -13.375 23.375 C-17.13328497 19.97464693 -18.70711188 17.0083757 -19.4375 12 C-18.77035852 7.42531558 -16.57908298 4.43894791 -13.1953125 1.35546875 C-9.12167223 -1.15975042 -4.608955 -0.72035766 0 0 Z " transform="translate(769,449)" style="fill: #FA745C;"/><path d="M0 0 C3.63 0 7.26 0 11 0 C11.1080023 2.10304477 11.18558987 4.20766909 11.25 6.3125 C11.29640625 7.48425781 11.3428125 8.65601563 11.390625 9.86328125 C11 13 11 13 9.33203125 14.9296875 C6.4164204 16.26784055 4.61122622 16.17952956 1.4375 15.8125 C0.48746094 15.71582031 -0.46257813 15.61914062 -1.44140625 15.51953125 C-4 15 -4 15 -7 13 C-6.34 12.566875 -5.68 12.13375 -5 11.6875 C-4.01 10.8521875 -4.01 10.8521875 -3 10 C-3 9.01 -3 8.02 -3 7 C-2.67 6.01 -2.34 5.02 -2 4 C-1.195625 3.87625 -0.39125 3.7525 0.4375 3.625 C1.283125 3.41875 2.12875 3.2125 3 3 C3.33 2.34 3.66 1.68 4 1 C2.68 0.67 1.36 0.34 0 0 Z " transform="translate(678,549)" style="fill: #FA7861;"/><path d="M0 0 C0.33 0 0.66 0 1 0 C1.33 8.58 1.66 17.16 2 26 C3.98 25.34 5.96 24.68 8 24 C7.1875 25.9375 7.1875 25.9375 6 28 C5.01 28.33 4.02 28.66 3 29 C2.34 43.52 1.68 58.04 1 73 C7.27 72.67 13.54 72.34 20 72 C19.67 72.99 19.34 73.98 19 75 C16.02077407 75.02683987 13.04178705 75.04676037 10.0625 75.0625 C9.21236328 75.07087891 8.36222656 75.07925781 7.48632812 75.08789062 C6.67744141 75.09111328 5.86855469 75.09433594 5.03515625 75.09765625 C4.2862915 75.10289307 3.53742676 75.10812988 2.76586914 75.11352539 C1 75 1 75 0 74 C-0.09443335 71.69946165 -0.11742128 69.39597827 -0.11352539 67.09350586 C-0.11367142 66.37159561 -0.11381744 65.64968536 -0.1139679 64.90589905 C-0.11326869 62.50885053 -0.10547595 60.11187877 -0.09765625 57.71484375 C-0.0957921 56.05717511 -0.09436818 54.39950593 -0.09336853 52.74183655 C-0.08954312 48.37045786 -0.07971265 43.99911219 -0.06866455 39.62774658 C-0.05845092 35.17045539 -0.05387101 30.71315889 -0.04882812 26.25585938 C-0.0380904 17.50389107 -0.02101371 8.75194964 0 0 Z " transform="translate(753,489)" style="fill: #FA654B;"/><path d="M0 0 C-0.61875 0.0825 -1.2375 0.165 -1.875 0.25 C-4.13953908 0.77260299 -4.13953908 0.77260299 -4.875 2.75 C-6.56512323 6.13024646 -8.98318657 7.73738992 -12 10 C-12.66 10 -13.32 10 -14 10 C-15.96760338 18.53637159 -15.96760338 25.46362841 -14 34 C-16 33 -16 33 -17.125 30.625 C-19.09198991 22.4760418 -18.74908131 15.63427095 -14.63671875 8.234375 C-11.35978381 3.76085045 -5.67739999 -1.89246666 0 0 Z " transform="translate(280,464)" style="fill: #FB6A51;"/><path d="M0 0 C5.43218694 5.43218694 6.1875 10.564355 6.1875 18 C6.13976302 20.00040682 6.08228759 22.00071638 6 24 C5.67 24 5.34 24 5 24 C4.67 22.02 4.34 20.04 4 18 C3.01 17.67 2.02 17.34 1 17 C-0.125 12.25 -0.125 12.25 1 10 C1.66 10 2.32 10 3 10 C2.01 6.7 1.02 3.4 0 0 Z " transform="translate(374,542)" style="fill: #FB6B53;"/><path d="M0 0 C1.19558493 4.78233972 0.49784635 5.79234381 -1.6875 10.0625 C-2.20699219 11.10535156 -2.72648438 12.14820313 -3.26171875 13.22265625 C-4.95241699 15.9239741 -6.33134256 17.3197342 -9 19 C-8.67 17.68 -8.34 16.36 -8 15 C-8.66 14.67 -9.32 14.34 -10 14 C-8.19587357 10.73539027 -7.16605307 9.11070205 -4 7 C-3.34 7.33 -2.68 7.66 -2 8 C-1.34 5.36 -0.68 2.72 0 0 Z " transform="translate(865,536)" style="fill: #FA6D55;"/><path d="M0 0 C3.63 0 7.26 0 11 0 C11.55561711 2.62275173 12.09492378 5.24707977 12.625 7.875 C12.78484375 8.62136719 12.9446875 9.36773437 13.109375 10.13671875 C13.49370627 12.0758447 13.75531287 14.03835574 14 16 C13.34 16.66 12.68 17.32 12 18 C11.53603307 20.89223503 11.53603307 20.89223503 11.375 24.125 C11.30023437 25.22070312 11.22546875 26.31640625 11.1484375 27.4453125 C11.09945312 28.28835938 11.05046875 29.13140625 11 30 C10.67 30 10.34 30 10 30 C10 20.43 10 10.86 10 1 C6.7 1 3.4 1 0 1 C0 0.67 0 0.34 0 0 Z " transform="translate(642,502)" style="fill: #FB826A;"/><path d="M0 0 C3.88536171 0.5638932 6.45224086 1.66689444 9.6875 3.875 C10.45449219 4.38804687 11.22148437 4.90109375 12.01171875 5.4296875 C14 7 14 7 16 10 C15.46375 9.71125 14.9275 9.4225 14.375 9.125 C11.60119724 7.81109343 8.97806852 6.76035792 6 6 C5.01 6.66 4.02 7.32 3 8 C3 6.68 3 5.36 3 4 C1.68 4.33 0.36 4.66 -1 5 C-0.67 3.35 -0.34 1.7 0 0 Z " transform="translate(304,524)" style="fill: #FA6C53;"/><path d="M0 0 C0 0.33 0 0.66 0 1 C-1.27617187 0.97679687 -2.55234375 0.95359375 -3.8671875 0.9296875 C-5.5364525 0.91093171 -7.2057238 0.89273131 -8.875 0.875 C-9.71675781 0.85824219 -10.55851563 0.84148438 -11.42578125 0.82421875 C-12.63427734 0.81455078 -12.63427734 0.81455078 -13.8671875 0.8046875 C-14.61081543 0.79421387 -15.35444336 0.78374023 -16.12060547 0.77294922 C-18.24490235 0.8334403 -18.24490235 0.8334403 -20 3 C-21.32 2.01 -22.64 1.02 -24 0 C-15.58232701 -2.86559081 -8.48402868 -2.46808107 0 0 Z " transform="translate(239,529)" style="fill: #FB6B53;"/><path d="M0 0 C0.33 0 0.66 0 1 0 C1 4.62 1 9.24 1 14 C5.62 14 10.24 14 15 14 C15 14.33 15 14.66 15 15 C9.59280411 15.92037377 4.48677955 16.08441199 -1 16 C-0.67 10.72 -0.34 5.44 0 0 Z " transform="translate(674,470)" style="fill: #FDF9F4;"/><path d="M0 0 C2.64465038 3.1254959 3.84414715 6.08788267 5 10 C5.33 9.34 5.66 8.68 6 8 C6.99 8 7.98 8 9 8 C9.6875 9.8125 9.6875 9.8125 10 12 C8.51953125 13.63671875 8.51953125 13.63671875 7 15 C6.0115904 13.44333045 5.03464918 11.87937574 4.0625 10.3125 C3.51722656 9.44238281 2.97195313 8.57226562 2.41015625 7.67578125 C1.02832828 5.05375311 0.41519827 2.91689925 0 0 Z " transform="translate(457,532)" style="fill: #FA6950;"/><path d="M0 0 C0.33 0 0.66 0 1 0 C2.33257403 10.55808656 2.33257403 10.55808656 1 15 C0.34 14.67 -0.32 14.34 -1 14 C-1.02694851 12.04174127 -1.04637218 10.08337774 -1.0625 8.125 C-1.07410156 7.03445313 -1.08570313 5.94390625 -1.09765625 4.8203125 C-1 2 -1 2 0 0 Z " transform="translate(194,552)" style="fill: #FA6D54;"/><path d="M0 0 C0.66 0.33 1.32 0.66 2 1 C1.67 1.66 1.34 2.32 1 3 C1.66 3 2.32 3 3 3 C2.34 4.32 1.68 5.64 1 7 C0.01 6.67 -0.98 6.34 -2 6 C-2.99 6.99 -3.98 7.98 -5 9 C-5.66 8.67 -6.32 8.34 -7 8 C-4.69 5.36 -2.38 2.72 0 0 Z " transform="translate(527,534)" style="fill: #FA684E;"/><path d="M0 0 C0.99 0.33 1.98 0.66 3 1 C2.773125 1.7425 2.54625 2.485 2.3125 3.25 C1.70523302 6.05914993 1.70523302 6.05914993 3.4375 8.3125 C3.953125 8.869375 4.46875 9.42625 5 10 C4.67 10.66 4.34 11.32 4 12 C2.96409662 10.93106782 1.94666058 9.84421512 0.9375 8.75 C0.36902344 8.14671875 -0.19945312 7.5434375 -0.78515625 6.921875 C-2 5 -2 5 -1.74609375 2.828125 C-1 1 -1 1 0 0 Z " transform="translate(333,529)" style="fill: #FB674E;"/><path d="M0 0 C0 0.66 0 1.32 0 2 C-1.65 2 -3.3 2 -5 2 C-5.33 2.66 -5.66 3.32 -6 4 C-6.33 3.01 -6.66 2.02 -7 1 C-9.31 1.33 -11.62 1.66 -14 2 C-14.33 1.34 -14.66 0.68 -15 0 C-13.06325815 -0.19517554 -11.12555991 -0.38087873 -9.1875 -0.5625 C-8.10855469 -0.66691406 -7.02960938 -0.77132813 -5.91796875 -0.87890625 C-3 -1 -3 -1 0 0 Z " transform="translate(516,456)" style="fill: #FB7D65;"/><path d="M0 0 C0.66 0.33 1.32 0.66 2 1 C-1.59054233 4.88975419 -5.73898882 7.89732195 -10 11 C-8.55218207 7.55571735 -6.72305391 5.63869038 -3.875 3.25 C-3.15054687 2.63640625 -2.42609375 2.0228125 -1.6796875 1.390625 C-0.84824219 0.70226562 -0.84824219 0.70226562 0 0 Z " transform="translate(475,463)" style="fill: #FA6248;"/><path d="M0 0 C0.66 0.33 1.32 0.66 2 1 C-3.28571429 7.42857143 -3.28571429 7.42857143 -6 10 C-6.66 9.67 -7.32 9.34 -8 9 C-6.85459775 7.68712379 -5.70866567 6.37470979 -4.5625 5.0625 C-3.92441406 4.33160156 -3.28632813 3.60070312 -2.62890625 2.84765625 C-1.77458541 1.87860647 -0.91348825 0.91348825 0 0 Z " transform="translate(169,420)" style="fill: #FA654A;"/><path d="M0 0 C0.66 0.99 1.32 1.98 2 3 C1.01 3.66 0.02 4.32 -1 5 C-2.07136051 7.30144109 -3.07989717 9.6340213 -4 12 C-4.65234375 10.265625 -4.65234375 10.265625 -5 8 C-4.00390625 5.859375 -4.00390625 5.859375 -2.5625 3.75 C-2.08941406 3.04359375 -1.61632812 2.3371875 -1.12890625 1.609375 C-0.75636719 1.07828125 -0.38382813 0.5471875 0 0 Z " transform="translate(248,540)" style="fill: #FB6449;"/><path d="M0 0 C0 4.62 0 9.24 0 14 C-0.33 14 -0.66 14 -1 14 C-1.33 11.36 -1.66 8.72 -2 6 C-2.33 6 -2.66 6 -3 6 C-3.042721 4.33388095 -3.04063832 2.66617115 -3 1 C-2 0 -2 0 0 0 Z " transform="translate(558,516)" style="fill: #FBD2C3;"/><path d="M0 0 C3.63 0 7.26 0 11 0 C10.01 0.33 9.02 0.66 8 1 C8 1.66 8 2.32 8 3 C5.69 3 3.38 3 1 3 C0.67 2.01 0.34 1.02 0 0 Z " transform="translate(825,483)" style="fill: #FA7F68;"/><path d="M0 0 C1 3 1 3 1 7 C-0.65 7.33 -2.3 7.66 -4 8 C-2.25 2.25 -2.25 2.25 0 0 Z " transform="translate(464,474)" style="fill: #FA684F;"/><path d="M0 0 C2.97 0 5.94 0 9 0 C8.67 0.99 8.34 1.98 8 3 C5.36 3 2.72 3 0 3 C0 2.01 0 1.02 0 0 Z " transform="translate(279,520)" style="fill: #FB806B;"/><path d="M0 0 C0.33 0.99 0.66 1.98 1 3 C0.00390625 4.82421875 0.00390625 4.82421875 -1.4375 6.6875 C-1.91058594 7.31011719 -2.38367188 7.93273437 -2.87109375 8.57421875 C-3.24363281 9.04472656 -3.61617187 9.51523437 -4 10 C-4 7.16032769 -3.59732819 4.76264289 -3 2 C-2.01 2 -1.02 2 0 2 C0 1.34 0 0.68 0 0 Z " transform="translate(634,542)" style="fill: #F96449;"/><path d="M0 0 C0.66 0.33 1.32 0.66 2 1 C-1.87564767 4.61139896 -1.87564767 4.61139896 -4 6 C-6.375 5.8125 -6.375 5.8125 -8 5 C-4.25 2 -4.25 2 -2 2 C-1.34 1.34 -0.68 0.68 0 0 Z " transform="translate(585,504)" style="fill: #F96A51;"/><path d="M0 0 C0 0.66 0 1.32 0 2 C-3.96 1.67 -7.92 1.34 -12 1 C-12 0.67 -12 0.34 -12 0 C-10.37585622 -0.19477739 -8.75063577 -0.38059458 -7.125 -0.5625 C-6.22007812 -0.66691406 -5.31515625 -0.77132813 -4.3828125 -0.87890625 C-2 -1 -2 -1 0 0 Z " transform="translate(513,473)" style="fill: #FA6148;"/></svg>